<?xml version="1.0" encoding="UTF-8" standalone="no"?>
<svg
   width="192"
   height="28"
   role="img"
   aria-label="LICENSE: UNLICENSE"
   version="1.1"
   id="svg18"
   sodipodi:docname="License-unLicense_02_blue.svg"
   xml:space="preserve"
   inkscape:version="1.2.2 (732a01da63, 2022-12-09)"
   xmlns:inkscape="http://www.inkscape.org/namespaces/inkscape"
   xmlns:sodipodi="http://sodipodi.sourceforge.net/DTD/sodipodi-0.dtd"
   xmlns:xlink="http://www.w3.org/1999/xlink"
   xmlns="http://www.w3.org/2000/svg"
   xmlns:svg="http://www.w3.org/2000/svg"
   xmlns:rdf="http://www.w3.org/1999/02/22-rdf-syntax-ns#"
   xmlns:cc="http://creativecommons.org/ns#"
   xmlns:dc="http://purl.org/dc/elements/1.1/"><defs
     id="defs22"><linearGradient
       id="linearGradient2463"
       inkscape:swatch="solid"><stop
         style="stop-color:#323232;stop-opacity:1;"
         offset="0"
         id="stop2461" /></linearGradient><linearGradient
       inkscape:collect="always"
       xlink:href="#linearGradient2463"
       id="linearGradient2465"
       x1="2"
       y1="16"
       x2="30"
       y2="16"
       gradientUnits="userSpaceOnUse" /><linearGradient
       inkscape:collect="always"
       xlink:href="#linearGradient2463"
       id="linearGradient319"
       gradientUnits="userSpaceOnUse"
       x1="2"
       y1="16"
       x2="30"
       y2="16" /><linearGradient
       inkscape:collect="always"
       xlink:href="#linearGradient2463"
       id="linearGradient321"
       gradientUnits="userSpaceOnUse"
       x1="2"
       y1="16"
       x2="30"
       y2="16" /><linearGradient
       inkscape:collect="always"
       xlink:href="#linearGradient2463"
       id="linearGradient323"
       gradientUnits="userSpaceOnUse"
       x1="2"
       y1="16"
       x2="30"
       y2="16" /><linearGradient
       inkscape:collect="always"
       xlink:href="#linearGradient2463"
       id="linearGradient325"
       gradientUnits="userSpaceOnUse"
       x1="2"
       y1="16"
       x2="30"
       y2="16" /></defs><sodipodi:namedview
     id="namedview20"
     pagecolor="#ffffff"
     bordercolor="#666666"
     borderopacity="1.0"
     inkscape:showpageshadow="2"
     inkscape:pageopacity="0.0"
     inkscape:pagecheckerboard="0"
     inkscape:deskcolor="#d1d1d1"
     showgrid="false"
     inkscape:zoom="4.1875"
     inkscape:cx="67.940299"
     inkscape:cy="43.58209"
     inkscape:current-layer="layer1" /><title
     id="title2">LICENSE: UNLICENSE</title><g
     shape-rendering="crispEdges"
     id="g8"
     transform="translate(0,0.23880597)"><rect
       width="92.75"
       height="28"
       fill="#555555"
       id="rect4"
       x="0"
       y="0" /><rect
       x="92.75"
       width="99.25"
       height="28"
       fill="#9b67cb"
       id="rect6"
       y="0" /></g><g
     fill="#ffffff"
     text-anchor="middle"
     font-family="Verdana, Geneva, 'DejaVu Sans', sans-serif"
     text-rendering="geometricPrecision"
     font-size="100px"
     id="g16"
     transform="translate(0,0.71641791)"><g
       aria-label="LICENSE"
       transform="scale(0.1)"
       id="text12"><path
         d="m 339.07064,175 h -45.9961 v -72.70508 h 9.66797 v 64.11133 h 36.32813 z"
         id="path315" /><path
         d="M 387.75554,175 H 359.0446 v -7.42188 h 9.52148 V 109.7168 h -9.52148 v -7.42188 h 28.71094 v 7.42188 h -9.52149 v 57.86132 h 9.52149 z"
         id="path317" /><path
         d="m 473.74511,169.72656 q -2.68554,1.17188 -4.88281,2.19727 -2.14844,1.02539 -5.66406,2.14844 -2.97852,0.92773 -6.49414,1.5625 -3.4668,0.68359 -7.66602,0.68359 -7.91015,0 -14.40429,-2.19727 -6.44532,-2.24609 -11.23047,-6.98242 -4.6875,-4.63867 -7.32422,-11.76758 -2.63672,-7.17773 -2.63672,-16.65039 0,-8.98437 2.53906,-16.06445 2.53907,-7.08008 7.32422,-11.96289 4.63867,-4.73633 11.18164,-7.22656 6.5918,-2.49024 14.59961,-2.49024 5.85938,0 11.66992,1.41602 5.85938,1.41601 12.98828,4.98047 v 11.47461 h -0.73242 q -6.00586,-5.0293 -11.91406,-7.32422 -5.9082,-2.29492 -12.64648,-2.29492 -5.51758,0 -9.96094,1.80664 -4.39453,1.75781 -7.86133,5.51757 -3.36914,3.66211 -5.27344,9.27735 -1.85547,5.5664 -1.85547,12.89062 0,7.66602 2.05079,13.1836 2.0996,5.51757 5.37109,8.98437 3.41797,3.61328 7.95898,5.3711 4.58985,1.70898 9.66797,1.70898 6.98242,0 13.08594,-2.39258 6.10352,-2.39258 11.42578,-7.17773 h 0.68359 z"
         id="path319" /><path
         d="m 548.69954,175 h -47.90039 v -72.70508 h 47.90039 v 8.59375 h -38.23242 v 19.92188 h 38.23242 v 8.59375 h -38.23242 v 27.00195 h 38.23242 z"
         id="path321" /><path
         d="M 632.8825,175 H 620.91961 L 586.44695,109.96094 V 175 h -9.0332 v -72.70508 h 14.99023 l 31.44531,59.375 v -59.375 h 9.03321 z"
         id="path323" /><path
         d="m 718.43261,154.24805 q 0,4.24804 -2.00196,8.39843 -1.95312,4.15039 -5.51757,7.03125 -3.90625,3.125 -9.13086,4.88282 -5.17578,1.75781 -12.5,1.75781 -7.86133,0 -14.16016,-1.46484 -6.25,-1.46485 -12.74414,-4.34571 v -12.10937 h 0.68359 q 5.51758,4.58984 12.74414,7.08008 7.22657,2.49023 13.57422,2.49023 8.98438,0 13.96485,-3.36914 5.02929,-3.36914 5.02929,-8.98438 0,-4.83398 -2.39257,-7.1289 -2.34375,-2.29492 -7.17774,-3.56446 -3.66211,-0.97656 -7.95898,-1.61132 -4.24805,-0.63477 -9.03321,-1.61133 -9.66797,-2.05078 -14.35547,-6.98242 -4.63867,-4.98047 -4.63867,-12.93946 0,-9.13086 7.71485,-14.9414 7.71484,-5.85938 19.58007,-5.85938 7.66602,0 14.0625,1.46485 6.39649,1.46484 11.32813,3.61328 v 11.42578 h -0.68359 q -4.15039,-3.51563 -10.9375,-5.81055 -6.73829,-2.34375 -13.81836,-2.34375 -7.76368,0 -12.5,3.22266 -4.6875,3.22265 -4.6875,8.30078 0,4.54102 2.34375,7.12891 2.34375,2.58789 8.25195,3.95507 3.125,0.6836 8.88672,1.66016 5.76172,0.97656 9.76562,2.00195 8.10547,2.14844 12.20703,6.49414 4.10157,4.34571 4.10157,12.15821 z"
         id="path325" /><path
         d="m 795.24251,175 h -47.90039 v -72.70508 h 47.90039 v 8.59375 h -38.23242 v 19.92188 h 38.23242 v 8.59375 h -38.23242 v 27.00195 h 38.23242 z"
         id="path327" /></g><g
       aria-label="UNLICENSE"
       transform="scale(0.1)"
       id="text14"
       style="font-weight:bold"><path
         d="m 1113.9728,148.68164 q 0,13.47656 -8.2031,20.6543 -8.2032,7.17773 -24.17,7.17773 -15.9668,0 -24.1699,-7.17773 -8.1543,-7.17774 -8.1543,-20.60547 v -46.43555 h 18.8477 v 45.36133 q 0,7.56836 3.1738,11.2793 3.1738,3.71093 10.3027,3.71093 7.0313,0 10.2539,-3.56445 3.2715,-3.56445 3.2715,-11.42578 v -45.36133 h 18.8477 z"
         id="path344" /><path
         d="m 1210.5682,175 h -18.0664 l -30.8593,-49.90234 V 175 h -17.1875 v -72.70508 h 22.4121 l 26.5136,41.65039 v -41.65039 h 17.1875 z"
         id="path346" /><path
         d="m 1294.5172,175 h -52.4414 v -72.70508 h 18.75 v 58.64258 h 33.6914 z"
         id="path348" /><path
         d="m 1358.056,175 h -42.5781 v -12.89063 h 11.9141 v -46.92382 h -11.9141 v -12.89063 h 42.5781 v 12.89063 h -11.914 v 46.92382 h 11.914 z"
         id="path350" /><path
         d="m 1419.1534,176.41602 q -8.1054,0 -14.9902,-2.39258 -6.8359,-2.39258 -11.7676,-7.12891 -4.9316,-4.73633 -7.666,-11.81641 -2.6855,-7.08007 -2.6855,-16.35742 0,-8.64258 2.5879,-15.67382 2.5878,-7.03125 7.5195,-12.06055 4.7363,-4.83399 11.7187,-7.4707 7.0313,-2.63672 15.3321,-2.63672 4.5898,0 8.2519,0.53711 3.711,0.48828 6.836,1.31836 3.2714,0.92773 5.9082,2.0996 2.6855,1.12305 4.6875,2.09961 v 17.62696 h -2.1485 q -1.3672,-1.17188 -3.4668,-2.78321 -2.0508,-1.61132 -4.6875,-3.17382 -2.6855,-1.5625 -5.8105,-2.63672 -3.125,-1.07422 -6.6895,-1.07422 -3.955,0 -7.5195,1.26953 -3.5645,1.2207 -6.5918,4.10156 -2.8809,2.78321 -4.6875,7.37305 -1.7578,4.58984 -1.7578,11.13281 0,6.83594 1.9043,11.42578 1.9531,4.58985 4.8828,7.22656 2.9785,2.68555 6.6406,3.85743 3.6621,1.12304 7.2266,1.12304 3.418,0 6.7383,-1.02539 3.3691,-1.02539 6.2011,-2.7832 2.3926,-1.41602 4.4434,-3.02734 2.0508,-1.61133 3.3691,-2.78321 h 1.9532 v 17.38282 q -2.7344,1.2207 -5.2246,2.29492 -2.4903,1.07422 -5.2247,1.85547 -3.5644,1.02539 -6.6894,1.5625 -3.125,0.53711 -8.5938,0.53711 z"
         id="path352" /><path
         d="m 1524.1962,175 h -52.5879 v -72.70508 h 52.5879 v 14.0625 h -33.9356 v 12.54883 h 31.4942 v 14.0625 h -31.4942 v 17.96875 h 33.9356 z"
         id="path354" /><path
         d="m 1618.985,175 h -18.0664 l -30.8594,-49.90234 V 175 h -17.1875 v -72.70508 h 22.4121 l 26.5137,41.65039 v -41.65039 h 17.1875 z"
         id="path356" /><path
         d="m 1708.6957,152.14844 q 0,10.74218 -9.1309,17.48047 -9.082,6.68945 -24.707,6.68945 -9.0332,0 -15.7715,-1.5625 -6.6894,-1.61133 -12.5488,-4.05274 v -17.43164 h 2.0508 q 5.8105,4.63868 12.9882,7.12891 7.2266,2.49023 13.8672,2.49023 1.709,0 4.4922,-0.29296 2.7832,-0.29297 4.541,-0.97657 2.1485,-0.8789 3.5157,-2.19726 1.416,-1.31836 1.416,-3.90625 0,-2.39258 -2.0508,-4.10156 -2.002,-1.75782 -5.9082,-2.68555 -4.1016,-0.97656 -8.6914,-1.80664 -4.541,-0.87891 -8.5449,-2.19727 -9.1797,-2.97851 -13.2325,-8.05664 -4.0039,-5.12695 -4.0039,-12.69531 0,-10.15625 9.0821,-16.55273 9.1308,-6.44532 23.4375,-6.44532 7.1777,0 14.1601,1.41602 7.0313,1.36719 12.1582,3.4668 v 16.74804 h -2.0019 q -4.3946,-3.51562 -10.791,-5.85937 -6.3477,-2.39258 -12.9883,-2.39258 -2.3438,0 -4.6875,0.3418 -2.295,0.29296 -4.4434,1.17187 -1.9043,0.73242 -3.2715,2.24609 -1.3672,1.46485 -1.3672,3.36915 0,2.88085 2.1973,4.44335 2.1973,1.51368 8.3008,2.78321 4.0039,0.83008 7.666,1.61133 3.7109,0.78125 7.959,2.14843 8.3496,2.73438 12.3047,7.47071 4.0039,4.6875 4.0039,12.20703 z"
         id="path358" /><path
         d="m 1787.0782,175 h -52.5878 v -72.70508 h 52.5878 v 14.0625 h -33.9355 v 12.54883 h 31.4941 v 14.0625 h -31.4941 v 17.96875 h 33.9355 z"
         id="path360" /></g></g><g
     inkscape:groupmode="layer"
     id="layer1"
     inkscape:label="Layer 1"><g
       style="fill:#678acb;fill-opacity:1;stroke:url(#linearGradient2465);stroke-width:0.3631;stroke-dasharray:none"
       id="g972"
       transform="matrix(0.74702338,0,0,0.7555336,2.0315037,1.695634)"><path
         d="M 23.627,14.143 A 7.763,7.763 0 0 0 22.82,12.109 l -2.034,2.034 z"
         style="fill:#678acb;fill-opacity:1;stroke:url(#linearGradient319);stroke-width:0.3631;stroke-dasharray:none"
         id="path954" /><path
         d="M 11.714,16 A 4.286,4.286 0 0 1 16,11.714 4.225,4.225 0 0 1 17.174,11.898 L 19.891,9.18 A 7.849,7.849 0 0 0 9.18,19.891 L 11.9,17.174 A 4.225,4.225 0 0 1 11.714,16 Z"
         style="fill:#678acb;fill-opacity:1;stroke:url(#linearGradient321);stroke-width:0.3631;stroke-dasharray:none"
         id="path956" /><path
         d="m 16,20.286 a 4.225,4.225 0 0 1 -1.174,-0.184 l -2.717,2.718 a 7.844,7.844 0 0 0 11.555,-5.106 h -3.74 A 4.283,4.283 0 0 1 16,20.286 Z"
         style="fill:#678acb;fill-opacity:1;stroke:url(#linearGradient323);stroke-width:0.3631;stroke-dasharray:none"
         id="path958" /><path
         d="M 16,2 A 14,14 0 1 0 30,16 14,14 0 0 0 16,2 Z M 4.857,16 A 11.13,11.13 0 0 1 22.522,6.978 L 6.978,22.522 A 11.083,11.083 0 0 1 4.857,16 Z M 16,27.143 A 11.083,11.083 0 0 1 9.478,25.022 L 25.022,9.478 A 11.13,11.13 0 0 1 16,27.143 Z"
         style="fill:#678acb;fill-opacity:1;stroke:url(#linearGradient325);stroke-width:0.3631;stroke-dasharray:none"
         id="path960" /></g></g><metadata
     id="metadata1337"><rdf:RDF><cc:Work
         rdf:about=""><dc:title>LICENSE: UNLICENSE</dc:title></cc:Work></rdf:RDF></metadata></svg>
